<?xml version="1.0" standalone="no"?>
<!DOCTYPE svg PUBLIC "-//W3C//DTD SVG 20010904//EN"
 "http://www.w3.org/TR/2001/REC-SVG-20010904/DTD/svg10.dtd">
<svg version="1.0" xmlns="http://www.w3.org/2000/svg"
 width="329.000000pt" height="329.000000pt" viewBox="0 0 329.000000 329.000000"
 preserveAspectRatio="xMidYMid meet">
<metadata>
Created by potrace 1.14, written by Peter Selinger 2001-2017
</metadata>
<g transform="translate(0.000000,329.000000) scale(0.100000,-0.100000)"
fill="#000000" stroke="none">
<path d="M1680 3080 c-7 -4 -9 -13 -5 -19 3 -6 6 -97 5 -201 -1 -174 1 -191
17 -197 10 -3 26 -13 36 -21 13 -12 20 -13 29 -4 22 22 17 24 306 -115 72 -35
97 -38 73 -9 -19 23 -219 126 -244 126 -16 0 -18 3 -10 11 9 9 22 7 53 -5 23
-9 47 -21 53 -26 7 -6 55 -32 107 -58 l94 -48 1 -48 c0 -48 0 -48 55 -79 90
-50 146 -69 159 -53 9 10 8 15 -3 19 -8 3 -17 1 -20 -6 -2 -7 -5 -5 -5 5 -1
23 19 34 30 17 5 -8 9 -9 9 -3 0 10 -123 126 -141 132 -5 2 -9 10 -9 18 0 9
-4 12 -10 9 -5 -3 -19 -1 -30 5 -16 9 -18 15 -10 30 10 19 49 28 51 13 3 -36
18 -56 89 -123 63 -61 79 -81 73 -96 -4 -12 6 -6 29 16 29 29 33 37 21 48 -20
21 -5 34 36 30 32 -3 37 -1 35 17 -1 11 -3 31 -3 45 -1 28 -44 58 -295 211
-109 66 -145 93 -157 118 l-15 32 -25 -19 c-13 -11 -22 -22 -19 -24 3 -2 30
-19 60 -38 30 -18 84 -52 120 -75 36 -23 81 -51 100 -61 65 -35 88 -81 58
-113 -11 -10 -10 -14 2 -21 40 -23 49 -39 11 -18 -25 13 -51 35 -60 50 -17 29
-247 170 -428 263 -61 32 -71 42 -79 83 -7 35 10 45 19 12 6 -22 32 -18 41 7
9 23 -2 33 -35 33 -22 0 -38 -9 -57 -32 -15 -17 -44 -50 -66 -72 -33 -35 -35
-36 -15 -8 89 125 112 142 161 118 17 -9 23 -20 23 -46 0 -22 5 -38 15 -42 9
-4 2 -7 -18 -7 -19 -1 -31 3 -27 9 3 6 -1 7 -10 4 -20 -8 -23 -6 55 -46 94
-49 169 -91 269 -151 49 -28 103 -60 120 -69 17 -9 36 -29 41 -43 11 -28 25
-32 34 -9 10 26 -11 51 -76 90 -114 68 -288 185 -288 194 0 5 14 14 30 22 49
21 35 28 -45 21 -50 -4 -75 -2 -75 5 0 6 15 9 36 7 21 -2 46 0 57 4 18 7 13
12 -34 37 -30 16 -77 38 -104 48 -28 11 -80 38 -116 61 -41 27 -71 40 -79 35z
m120 -311 c0 -5 -5 -9 -11 -9 -5 0 -8 -4 -5 -9 3 -4 -5 -7 -17 -6 -31 3 -31 3
-19 18 13 15 52 20 52 6z m143 -29 c-2 -21 11 -33 82 -78 46 -30 101 -63 122
-74 45 -24 67 -43 38 -32 -48 17 -274 156 -286 176 -12 19 2 39 25 36 16 -2
20 -9 19 -28z m535 -192 c18 -18 14 -45 -8 -51 -24 -6 -50 17 -50 44 0 22 38
27 58 7z"/>
<path d="M1915 2749 c-4 -6 -5 -13 -2 -16 7 -7 27 6 27 18 0 12 -17 12 -25 -2z"/>
<path d="M1568 3055 c-7 -8 -57 -37 -112 -65 -106 -56 -164 -89 -156 -91 60
-9 63 -19 6 -19 -32 0 -45 -4 -40 -11 4 -8 0 -9 -15 -4 -17 5 -23 1 -31 -20
-5 -14 -15 -23 -20 -20 -6 4 -8 11 -5 16 9 14 -4 11 -45 -12 -27 -15 -36 -26
-33 -39 4 -14 -14 -30 -75 -67 -83 -50 -189 -126 -207 -148 -6 -7 -27 -20 -47
-28 -28 -12 -36 -22 -41 -48 -3 -22 0 -38 8 -45 11 -8 11 -12 -2 -20 -13 -8
-16 -49 -18 -267 -1 -142 -6 -261 -9 -264 -9 -10 -1 608 8 629 4 9 21 20 37
23 16 4 32 12 36 19 5 6 37 34 73 61 36 27 70 54 76 60 6 5 38 24 72 40 33 17
61 35 61 42 1 15 -33 0 -179 -79 -58 -31 -135 -71 -173 -89 l-67 -34 2 -45 c2
-26 8 -45 15 -45 6 0 15 -3 19 -7 4 -5 -3 -8 -15 -8 -12 0 -19 -4 -16 -10 4
-6 11 -7 17 -4 7 4 8 2 4 -4 -10 -17 -33 -15 -40 4 -3 8 -3 38 0 66 6 49 6 50
-15 38 -12 -6 -19 -16 -15 -21 3 -6 -2 -16 -12 -23 -14 -11 -17 -28 -16 -104
0 -87 -1 -93 -25 -112 -14 -11 -29 -17 -32 -14 -3 3 4 13 16 21 21 14 23 23
23 107 0 50 -5 98 -11 106 -9 13 -10 12 -5 -2 4 -14 0 -18 -17 -19 -25 0 -79
-59 -54 -59 8 0 18 -8 22 -17 3 -10 6 -112 6 -227 -1 -142 2 -213 10 -222 6
-8 7 -14 2 -14 -5 0 -10 -36 -11 -81 -1 -60 2 -79 11 -76 6 2 20 0 29 -5 10
-5 18 -5 19 -1 0 4 2 46 3 92 2 70 0 80 -11 65 -7 -10 -13 -13 -13 -8 0 6 4
14 9 19 8 8 17 222 11 245 -8 28 -6 41 6 51 25 20 39 -4 22 -38 -10 -21 -13
-73 -12 -218 0 -104 -3 -197 -7 -206 -11 -21 -44 -30 -59 -15 -8 8 -10 -18 -9
-102 2 -97 5 -115 21 -126 17 -12 17 -14 -1 -31 -17 -14 -19 -28 -17 -84 2
-36 4 -69 5 -73 0 -5 11 -8 24 -9 21 -1 21 -1 -3 -8 l-25 -7 -3 -292 -3 -292
28 -11 c19 -7 29 -7 31 0 2 6 11 11 20 10 11 0 12 -2 4 -6 -6 -2 -12 -9 -12
-14 0 -4 7 -6 15 -3 8 4 15 2 15 -4 0 -6 -5 -12 -12 -14 -9 -3 -9 -6 0 -12 8
-4 16 1 21 16 9 22 10 22 10 2 1 -30 -30 -40 -49 -17 -8 10 -30 25 -47 32
l-33 13 -1 297 c0 163 0 333 1 379 1 49 -3 89 -10 97 -8 10 -8 19 -1 34 15 26
15 825 0 852 -11 22 -29 25 -29 5 0 -8 -5 -16 -10 -18 -10 -3 -14 -310 -8
-663 l3 -160 -33 1 c-31 2 -32 1 -32 -37 0 -21 3 -39 8 -39 4 0 8 -11 8 -25 1
-14 -2 -25 -7 -25 -5 0 -9 -39 -9 -87 0 -86 0 -86 20 -68 18 16 20 30 19 92
-1 41 1 76 5 80 3 3 7 0 7 -8 5 -47 4 -79 -2 -117 -4 -28 -2 -48 7 -60 21 -27
16 -46 -21 -82 -28 -27 -35 -42 -35 -72 0 -28 5 -40 18 -45 9 -4 20 -11 24
-17 7 -10 10 -131 3 -124 -4 4 -13 68 -14 101 -1 24 -31 22 -31 -3 0 -12 7
-20 18 -20 16 -1 16 -1 0 -14 -15 -11 -18 -29 -18 -100 0 -81 1 -86 21 -86 15
0 19 -4 15 -16 -4 -11 7 -33 30 -60 27 -34 62 -57 142 -98 59 -29 174 -88 256
-130 97 -51 152 -74 158 -68 7 7 -5 20 -33 39 -24 15 -47 32 -51 37 -3 5 -24
10 -46 10 -43 1 -72 16 -31 16 23 1 23 1 4 12 -11 6 -46 28 -77 49 -32 21 -74
41 -94 43 -20 3 -42 10 -48 17 -8 8 -6 10 9 6 11 -3 31 -8 45 -11 14 -3 97
-48 185 -101 125 -74 160 -100 160 -116 0 -16 17 -30 63 -55 38 -21 62 -29 62
-21 0 6 5 4 11 -6 10 -17 12 -17 30 -2 23 22 49 13 49 -17 0 -14 9 -28 23 -34
26 -13 191 -105 257 -143 70 -41 79 -43 72 -19 -3 12 1 24 9 28 11 7 14 36 12
137 -3 262 1 235 -42 265 -37 25 -39 25 -44 7 -8 -29 -52 -25 -80 7 -12 15
-31 35 -41 45 -20 20 -103 64 -121 65 -5 0 -30 10 -53 23 -43 22 -67 22 -45 0
11 -11 125 -73 205 -111 26 -13 48 -26 48 -30 0 -9 -42 9 -90 37 -19 12 -66
36 -105 54 -38 18 -80 41 -92 53 l-21 20 -11 -21 c-7 -12 -18 -21 -25 -21 -7
0 -52 24 -100 52 -48 29 -117 70 -154 90 l-67 37 0 296 c0 163 3 299 7 301 4
3 5 -2 2 -10 -3 -9 -2 -16 2 -16 5 0 8 -126 7 -280 -2 -317 -12 -277 84 -331
22 -13 73 -43 113 -67 86 -50 120 -61 120 -38 0 16 -26 34 -160 111 -39 22
-70 46 -70 54 0 10 7 8 23 -7 13 -12 26 -22 29 -22 4 0 41 -20 83 -45 75 -45
145 -70 131 -47 -7 11 -160 102 -173 102 -4 0 -37 19 -72 43 -43 27 -67 51
-71 67 -3 14 -5 152 -4 306 l1 281 -32 -4 c-32 -4 -32 -4 -33 42 -1 50 -8 68
-23 59 -5 -3 -16 0 -24 6 -8 7 -24 10 -34 7 -12 -3 -22 1 -25 10 -9 23 -7 26
8 14 11 -9 16 -9 22 0 4 8 3 9 -4 5 -7 -4 -12 -3 -12 2 0 5 9 12 20 15 18 5
20 14 20 78 0 40 3 70 6 67 3 -4 5 -34 5 -68 0 -51 3 -61 15 -56 9 3 19 6 24
6 4 0 7 8 5 18 -3 23 13 42 31 35 11 -4 12 -9 4 -18 -7 -9 -7 -15 -1 -19 21
-13 26 25 26 190 l0 172 -22 -9 c-19 -7 -23 -5 -23 10 0 10 9 28 20 41 25 28
26 44 3 35 -53 -21 -71 -3 -39 41 13 16 18 17 35 6 12 -7 21 -8 21 -4 0 5 12
14 26 21 l25 11 -40 51 c-46 58 -50 74 -21 89 15 8 21 6 30 -9 13 -25 13 -54
0 -46 -5 3 -10 2 -10 -4 0 -26 23 -17 74 30 42 38 55 56 51 70 -5 14 -1 19 14
19 20 0 53 38 65 75 3 11 23 31 42 45 20 14 44 32 53 41 10 8 24 19 32 22 8 4
28 16 44 27 28 19 55 33 184 103 47 25 51 30 39 45 -12 15 -11 16 4 4 10 -8
19 -9 22 -3 9 14 -10 23 -42 21 -40 -3 -69 1 -54 7 6 2 10 9 6 14 -3 5 7 4 21
-1 34 -13 33 -14 28 14 -3 13 0 27 6 30 7 5 11 -3 11 -20 0 -21 4 -25 19 -21
16 4 19 0 19 -25 -1 -33 -11 -41 -138 -113 -108 -61 -242 -149 -262 -172 -23
-28 -30 -53 -13 -53 9 0 12 6 8 17 -4 11 -3 14 6 9 7 -4 32 5 59 22 26 17 83
48 127 69 114 56 126 65 113 80 -7 9 -7 17 2 28 17 21 40 19 40 -4 0 -33 -32
-59 -145 -116 -60 -31 -127 -70 -147 -86 -20 -16 -46 -29 -57 -29 -13 0 -51
-30 -95 -75 -41 -41 -70 -75 -65 -75 5 0 9 -6 9 -12 1 -45 21 -42 157 23 61
29 71 37 66 54 -5 18 -4 18 11 6 25 -21 33 -4 9 20 l-20 21 -22 -31 c-27 -37
-71 -44 -71 -11 0 22 10 26 27 9 7 -7 16 1 30 27 11 21 25 40 33 42 8 3 10 0
5 -8 -5 -9 -4 -11 4 -6 6 4 9 11 6 16 -2 4 9 13 25 20 17 7 30 16 30 20 0 4 6
7 13 7 11 -1 86 32 97 43 13 13 112 61 116 57 6 -6 -148 -93 -213 -122 -27
-11 -43 -25 -43 -35 0 -16 11 -13 83 17 45 19 115 50 155 69 77 36 108 42 114
22 3 -8 13 -5 33 10 15 12 34 22 41 22 7 0 18 8 23 18 6 9 11 11 11 5 0 -7 4
-13 8 -13 5 0 8 78 9 173 0 94 -3 161 -6 147 -4 -14 -7 -37 -6 -52 1 -16 -2
-28 -6 -28 -5 0 -7 25 -6 56 2 30 0 57 -4 60 -4 2 -5 12 -2 23 4 14 -1 19 -20
19 -14 0 -31 -6 -39 -13z m-13 -174 c48 -49 71 -67 77 -58 5 8 8 3 9 -13 2
-56 0 -102 -5 -108 -3 -3 -6 17 -6 44 0 49 0 49 -92 138 -51 49 -84 84 -73 78
11 -6 51 -42 90 -81z m90 9 c3 -5 1 -10 -4 -10 -6 0 -11 5 -11 10 0 6 2 10 4
10 3 0 8 -4 11 -10z m-265 -25 c0 -2 -15 -11 -34 -20 -18 -9 -56 -35 -84 -58
-28 -23 -81 -60 -117 -82 -94 -56 -159 -118 -150 -143 3 -11 1 -23 -5 -27 -21
-13 -11 64 13 86 29 28 3 14 -48 -26 -22 -18 -49 -35 -59 -39 -10 -3 -17 -9
-14 -12 3 -2 17 0 32 6 35 13 47 -13 19 -41 -23 -23 -53 -16 -53 12 0 25 -7
24 -46 -6 -18 -14 -36 -25 -40 -25 -17 0 43 53 75 66 18 8 49 28 69 45 19 17
55 40 79 50 25 10 68 34 96 52 29 19 68 43 87 55 20 11 46 33 60 47 25 26 62
47 118 64 1 1 2 -1 2 -4z m257 -17 c-3 -8 -6 -5 -6 6 -1 11 2 17 5 13 3 -3 4
-12 1 -19z m-92 -98 c0 -22 -38 -19 -41 3 -2 14 3 17 19 15 12 -2 22 -10 22
-18z m-878 -382 c-3 -7 -5 -2 -5 12 0 14 2 19 5 13 2 -7 2 -19 0 -25z m2 -46
c-2 -28 1 -42 9 -41 21 4 31 -3 26 -16 -7 -18 -44 -20 -45 -2 -4 50 -3 84 4
80 4 -3 7 -12 6 -21z m2 -160 c2 -72 13 -98 30 -71 7 11 9 11 9 1 0 -17 -29
-27 -42 -14 -6 6 -11 29 -10 52 0 22 1 57 1 77 2 62 10 31 12 -45z m126 -124
c-3 -8 -6 -5 -6 6 -1 11 2 17 5 13 3 -3 4 -12 1 -19z m-130 -18 c-1 -11 -5
-20 -9 -20 -10 0 -10 4 -2 24 8 22 13 20 11 -4z m3 -55 c0 -8 -4 -15 -10 -15
-5 0 -7 7 -4 15 4 8 8 15 10 15 2 0 4 -7 4 -15z m100 -5 c0 -5 -7 -10 -16 -10
-8 0 -12 5 -9 10 3 6 10 10 16 10 5 0 9 -4 9 -10z m-104 -35 c-4 -11 0 -15 11
-13 9 2 18 -3 20 -9 3 -8 -4 -13 -15 -13 -11 0 -22 6 -25 13 -4 13 2 37 10 37
3 0 2 -7 -1 -15z m4 -135 c0 -5 -2 -10 -4 -10 -3 0 -8 5 -11 10 -3 6 -1 10 4
10 6 0 11 -4 11 -10z m-26 -45 c-10 -8 -25 -15 -31 -15 -7 0 -14 -3 -14 -7 -1
-5 -3 -192 -4 -418 -2 -366 0 -411 14 -422 13 -11 14 -14 2 -22 -11 -7 -9 -14
12 -35 14 -14 20 -26 13 -26 -7 0 -23 11 -35 24 l-23 24 1 438 c1 241 4 441 7
446 7 10 67 37 73 31 3 -2 -4 -10 -15 -18z m76 -96 c0 -22 -5 -29 -19 -29 -28
0 -39 40 -16 56 24 18 35 9 35 -27z m-58 -126 c2 -28 0 -49 -4 -46 -5 2 -7 37
-7 76 2 74 6 62 11 -30z m86 60 c12 -24 4 -43 -18 -43 -22 0 -34 28 -19 46 15
19 26 18 37 -3z m-3 -603 c20 0 19 -29 0 -36 -23 -9 -18 -53 11 -79 14 -13 44
-33 67 -45 51 -25 64 -33 147 -86 36 -23 87 -51 115 -63 27 -12 52 -25 55 -30
5 -7 110 -71 223 -135 50 -29 65 -53 20 -33 -16 7 -55 30 -88 53 -33 22 -109
69 -170 103 -60 35 -144 84 -185 109 -41 25 -89 53 -107 63 -69 39 -102 65
-107 84 -3 11 -5 160 -4 330 l3 310 2 -272 c3 -233 5 -273 18 -273z m-82 202
l-2 -277 32 -28 c22 -19 25 -25 10 -18 -12 6 -28 10 -35 9 -10 -2 -14 58 -16
295 -1 163 1 297 5 297 5 0 7 -125 6 -278z m-103 134 c0 -3 -4 -8 -10 -11 -5
-3 -10 -1 -10 4 0 6 5 11 10 11 6 0 10 -2 10 -4z m418 -655 c59 -32 139 -78
177 -103 39 -25 90 -56 115 -69 25 -13 59 -33 75 -45 40 -28 83 -42 120 -38
24 3 26 2 10 -5 -34 -14 -84 -4 -128 25 -23 16 -67 42 -97 58 -30 16 -80 46
-110 66 -73 49 -119 72 -130 65 -5 -3 -12 1 -17 9 -4 8 -46 37 -93 65 -47 28
-92 56 -100 61 -19 13 -70 37 -92 44 -10 3 -18 14 -18 25 0 18 13 12 90 -40
50 -33 139 -86 198 -118z m-118 -6 c19 -12 58 -36 86 -54 29 -17 56 -31 60
-30 18 3 33 -1 46 -13 17 -16 44 -32 123 -73 57 -29 146 -83 222 -132 18 -13
47 -23 63 -23 31 0 50 -22 44 -53 -4 -27 -13 -31 -61 -28 -20 1 -23 7 -23 39
-1 35 -5 39 -63 75 -186 113 -210 124 -236 108 -8 -5 -11 -16 -7 -26 5 -14 13
-16 42 -10 44 8 44 -15 0 -26 -21 -6 -32 -3 -47 12 -25 25 -24 49 1 56 29 8
25 15 -19 40 -34 19 -41 20 -51 8 -10 -12 -19 -8 -54 28 -24 23 -59 51 -78 62
-85 48 -177 106 -183 115 -6 9 42 -18 135 -75z m463 -52 c95 -55 140 -108 108
-127 -5 -3 -8 6 -8 20 0 26 -20 47 -35 38 -4 -3 -8 1 -8 8 0 11 -178 119 -232
140 -10 4 -18 12 -18 18 0 10 44 -12 193 -97z m217 -108 c14 -17 7 -31 -20
-38 -23 -6 -36 13 -26 38 7 19 30 19 46 0z"/>
<path d="M918 2523 c-10 -2 -18 -9 -18 -14 0 -6 8 -5 20 1 11 6 20 13 20 15 0
3 -1 4 -2 4 -2 -1 -11 -3 -20 -6z"/>
<path d="M688 1663 c7 -3 16 -2 19 1 4 3 -2 6 -13 5 -11 0 -14 -3 -6 -6z"/>
<path d="M686 1638 c3 -5 10 -6 15 -3 13 9 11 12 -6 12 -8 0 -12 -4 -9 -9z"/>
<path d="M720 1564 c0 -8 5 -12 10 -9 6 3 10 10 10 16 0 5 -4 9 -10 9 -5 0
-10 -7 -10 -16z"/>
<path d="M730 960 c0 -5 5 -10 10 -10 6 0 10 5 10 10 0 6 -4 10 -10 10 -5 0
-10 -4 -10 -10z"/>
<path d="M1010 552 c0 -15 11 -21 27 -15 12 5 12 7 1 14 -17 11 -28 11 -28 1z"/>
<path d="M1442 288 c2 -17 9 -22 23 -20 26 5 29 8 22 27 -4 8 -16 15 -27 15
-16 0 -21 -5 -18 -22z"/>
<path d="M1510 480 c0 -5 5 -10 10 -10 6 0 10 5 10 10 0 6 -4 10 -10 10 -5 0
-10 -4 -10 -10z"/>
<path d="M1640 3040 c0 -5 7 -10 16 -10 8 0 12 5 9 10 -3 6 -10 10 -16 10 -5
0 -9 -4 -9 -10z"/>
<path d="M2118 2835 c2 -14 9 -25 14 -25 12 0 89 -46 241 -142 60 -37 113 -68
118 -68 5 0 9 -4 9 -9 0 -5 15 -18 33 -28 l32 -19 1 -378 c1 -212 5 -381 10
-384 13 -10 11 -72 -2 -72 -6 0 -11 -22 -13 -49 -2 -41 1 -49 19 -54 11 -3 20
-10 20 -16 0 -6 -7 -8 -17 -4 -13 5 -15 2 -11 -15 4 -12 3 -24 -1 -26 -4 -3
-7 -149 -6 -325 l0 -321 -54 -34 c-48 -31 -56 -33 -74 -21 -17 12 -26 10 -76
-22 -152 -97 -151 -97 -137 -111 11 -12 26 -6 92 35 97 61 112 69 99 56 -5 -5
-50 -36 -99 -67 -87 -56 -89 -57 -103 -36 -17 24 -33 18 -33 -12 0 -14 5 -18
15 -14 32 12 13 -5 -32 -28 -27 -14 -68 -39 -93 -55 -33 -23 -57 -31 -88 -31
-51 0 -49 16 3 18 35 1 154 60 172 85 13 17 10 43 -5 39 -15 -3 -16 14 -2 23
6 4 21 8 35 11 25 4 115 57 191 112 40 29 42 29 60 11 18 -17 20 -17 66 13
l48 31 -2 320 c-1 235 2 321 11 326 7 5 -2 12 -23 18 l-34 11 -1 -285 c0 -189
-4 -290 -11 -298 -12 -14 -101 -68 -207 -126 -75 -40 -87 -69 -17 -39 26 11
60 30 76 41 16 12 31 19 34 16 8 -7 -184 -124 -213 -129 -24 -4 -56 -50 -41
-59 6 -4 1 -10 -13 -14 -41 -13 -101 -42 -174 -84 -71 -42 -85 -47 -85 -33 0
4 21 18 48 30 55 25 111 57 126 72 5 5 18 10 27 10 21 0 35 18 22 31 -9 9
-136 -48 -184 -82 -15 -10 -34 -19 -41 -19 -8 0 -23 -9 -33 -20 -10 -11 -28
-20 -39 -19 -13 0 -16 3 -7 6 20 8 54 44 47 50 -3 3 -12 1 -19 -5 -8 -7 -17
-9 -20 -5 -4 3 -7 2 -7 -4 0 -6 -20 -23 -45 -39 -39 -24 -45 -33 -46 -63 0
-20 -3 -100 -5 -179 -4 -104 -2 -147 7 -158 9 -11 9 -18 1 -26 -9 -9 -12 -8
-12 6 0 16 -2 16 -16 5 -14 -12 -14 -14 5 -21 26 -9 37 -5 202 78 74 37 151
75 172 86 24 12 37 25 37 38 0 28 32 42 56 25 18 -12 25 -10 64 16 24 16 54
32 67 35 13 4 24 11 24 18 1 6 2 16 3 23 2 19 306 211 361 228 11 3 2 -4 -20
-16 -22 -12 -42 -25 -45 -29 -3 -3 -31 -21 -62 -39 -60 -34 -66 -42 -45 -59 9
-7 56 12 172 69 124 62 171 91 208 129 47 48 47 49 48 117 0 37 3 62 6 56 15
-38 21 2 21 134 -1 115 -4 150 -15 158 -11 8 -14 42 -14 149 0 77 -4 134 -9
127 -5 -9 -9 -10 -14 -2 -4 6 0 14 8 17 10 4 16 19 16 40 0 29 -3 34 -24 34
-14 0 -32 7 -41 16 -15 15 -16 46 -11 300 4 218 2 284 -7 284 -9 0 -9 2 0 8 7
4 14 38 16 77 2 39 3 -87 4 -280 0 -192 3 -360 7 -372 5 -17 15 -23 37 -23 28
0 29 -2 29 -46 0 -25 4 -43 9 -40 4 3 8 170 8 370 0 201 -4 363 -9 360 -4 -3
-8 -84 -8 -181 0 -97 -2 -174 -4 -172 -3 2 -6 81 -7 174 -1 94 -7 177 -12 186
-7 10 -5 25 6 45 9 16 16 23 17 17 0 -7 4 -13 9 -13 4 0 6 17 4 37 -5 45 -13
57 -13 19 0 -15 -4 -25 -9 -22 -5 4 -8 18 -6 34 4 33 -14 64 -74 122 l-46 45
-6 -80 -5 -80 -3 73 c-2 39 -4 76 -5 81 -1 14 -18 29 -35 33 -12 2 -15 -18
-17 -105 l-3 -109 35 -14 c34 -14 34 -14 32 -77 l-2 -62 -3 63 c-4 57 -6 62
-27 62 -42 0 -49 22 -48 144 1 112 1 113 -24 125 -38 17 -43 14 -37 -26 2 -21
6 -82 7 -135 1 -54 5 -101 9 -104 4 -4 1 -14 -6 -22 -8 -11 -8 -14 0 -9 6 4
15 3 18 -3 4 -6 1 -9 -7 -8 -10 2 -14 -42 -16 -226 -1 -126 -5 -232 -7 -234
-3 -3 -5 49 -5 116 0 100 -3 122 -14 122 -8 0 -18 4 -21 10 -4 6 1 7 11 3 14
-5 16 -3 11 11 -4 10 -3 15 3 11 8 -5 20 341 12 365 -2 6 -8 8 -13 4 -5 -3 -9
0 -9 5 0 6 7 11 15 11 8 0 15 5 15 11 0 6 -6 9 -14 6 -11 -4 -13 7 -9 57 l5
62 -63 33 c-35 19 -89 48 -119 65 -30 16 -85 45 -121 63 -37 17 -93 48 -125
68 -33 19 -62 35 -65 35 -3 0 -4 -11 -1 -25z m719 -492 c-3 -10 -5 -4 -5 12 0
17 2 24 5 18 2 -7 2 -21 0 -30z m-27 3 c0 -3 -4 -8 -10 -11 -5 -3 -10 -1 -10
4 0 6 5 11 10 11 6 0 10 -2 10 -4z m-110 -246 c5 -161 6 -173 25 -180 19 -7
19 -7 -3 -21 -19 -12 -22 -22 -22 -76 0 -49 3 -63 15 -63 23 0 18 -17 -7 -23
-24 -7 -38 -1 -38 15 0 7 4 7 13 0 9 -8 11 8 8 75 -3 80 -2 86 15 79 18 -6 18
-5 2 7 -15 12 -17 36 -18 180 -1 92 -5 165 -9 163 -4 -3 -8 2 -8 10 0 8 5 13
11 11 7 -2 13 -66 16 -177z m69 3 c0 -38 -3 -60 -7 -51 -7 17 -4 118 4 118 2
0 4 -30 3 -67z m3 -98 c3 -14 1 -25 -3 -25 -5 0 -9 11 -9 25 0 14 2 25 4 25 2
0 6 -11 8 -25z m33 -35 c3 -5 1 -10 -4 -10 -6 0 -11 5 -11 10 0 6 2 10 4 10 3
0 8 -4 11 -10z m-40 -10 c-3 -5 -1 -10 6 -10 7 0 10 -3 6 -6 -9 -9 -28 6 -22
17 4 5 8 9 11 9 3 0 2 -4 -1 -10z m115 -54 c0 -9 -30 -14 -35 -6 -4 6 3 10 14
10 12 0 21 -2 21 -4z m25 -263 c-6 -33 -25 -46 -25 -18 0 8 5 15 10 15 6 0 11
46 12 113 l2 112 4 -95 c1 -52 0 -110 -3 -127z m-280 90 c-1 -16 -3 -41 -4
-58 -1 -25 -3 -27 -11 -13 -7 11 -7 26 0 43 13 34 13 35 -5 29 -8 -4 -15 -2
-15 4 0 9 14 19 31 21 3 1 5 -11 4 -26z m145 -3 c0 -5 -2 -10 -4 -10 -3 0 -8
5 -11 10 -3 6 -1 10 4 10 6 0 11 -4 11 -10z m-73 -62 c-3 -7 -5 -2 -5 12 0 14
2 19 5 13 2 -7 2 -19 0 -25z m73 6 c0 -8 -5 -12 -10 -9 -6 4 -8 11 -5 16 9 14
15 11 15 -7z m-140 -38 c0 -3 -4 -8 -10 -11 -5 -3 -10 -1 -10 4 0 6 5 11 10
11 6 0 10 -2 10 -4z m67 -18 c-3 -8 -6 -5 -6 6 -1 11 2 17 5 13 3 -3 4 -12 1
-19z m0 -55 c-3 -10 -5 -4 -5 12 0 17 2 24 5 18 2 -7 2 -21 0 -30z m88 -3 c14
-16 16 -23 7 -32 -9 -9 -12 -7 -12 9 0 23 -25 38 -36 22 -3 -5 -3 -17 0 -25 4
-10 1 -14 -6 -12 -19 7 -20 24 -3 42 21 21 28 20 50 -4z m-160 -658 c-4 -27
-13 -45 -23 -49 -9 -4 -78 -44 -152 -91 -74 -47 -161 -101 -193 -121 -67 -41
-160 -111 -155 -116 7 -8 110 32 118 45 7 11 15 12 37 4 33 -11 42 -42 19 -60
-21 -15 -56 -7 -56 13 0 11 -5 13 -17 8 -10 -4 -40 -12 -68 -17 -27 -5 -61
-18 -76 -29 -15 -10 -30 -19 -34 -19 -4 0 -21 -10 -38 -23 -18 -12 -43 -28
-57 -35 -25 -13 -116 -19 -127 -8 -4 3 17 6 46 6 58 0 110 22 160 69 18 17 41
31 51 31 10 0 20 7 24 15 6 16 98 84 175 130 75 44 213 132 236 151 11 8 39
27 62 40 23 14 45 35 50 47 4 12 8 166 9 342 1 176 3 325 5 330 7 18 10 -619
4 -663z m207 525 c2 -59 0 -107 -4 -107 -7 0 -15 148 -10 193 6 53 11 22 14
-86z m-132 53 c0 -30 -21 -42 -35 -20 -3 6 1 7 9 4 11 -4 16 0 16 11 0 12 -5
15 -17 11 -15 -5 -15 -4 1 9 26 20 26 20 26 -15z m70 10 c0 -5 -5 -10 -11 -10
-5 0 -7 5 -4 10 3 6 8 10 11 10 2 0 4 -4 4 -10z m-73 -142 c1 -43 1 -43 -6 -8
-6 31 -5 50 3 50 1 0 3 -19 3 -42z m68 22 c-9 -14 8 -13 23 2 9 9 12 9 12 -1
0 -14 -28 -40 -42 -41 -5 0 -6 10 -4 23 6 29 5 27 12 27 3 0 2 -4 -1 -10z m1
-125 c0 -41 -2 -73 -5 -70 -8 8 -10 145 -2 145 4 0 7 -34 7 -75z m61 18 c-3
-10 -5 -2 -5 17 0 19 2 27 5 18 2 -10 2 -26 0 -35z m-130 -168 c-2 -173 0
-207 13 -215 12 -8 11 -10 -7 -10 l-22 0 2 215 c1 118 5 215 9 215 3 0 6 -92
5 -205z m170 115 l43 -25 0 -119 c0 -66 -2 -117 -5 -114 -3 2 -6 55 -6 116
l-2 112 -33 16 c-18 9 -39 23 -46 32 -15 18 -7 15 49 -18z m-27 -31 c13 -9 13
-10 -2 -6 -9 3 -19 1 -22 -6 -2 -7 -5 -4 -5 6 -1 20 7 21 29 6z m-73 -59 c0
-22 -2 -40 -6 -40 -4 0 -7 18 -7 40 0 22 2 40 6 40 3 0 7 -18 7 -40z m50 8
c-3 -8 -6 -5 -6 6 -1 11 2 17 5 13 3 -3 4 -12 1 -19z m-51 -78 c0 -11 -4 -20
-8 -20 -4 0 -8 9 -8 20 0 11 4 20 8 20 4 0 8 -9 8 -20z m0 -65 c0 -19 -2 -32
-5 -29 -8 8 -10 64 -2 64 4 0 7 -16 7 -35z m-331 -75 c-3 -5 -12 -10 -18 -10
-7 0 -6 4 3 10 19 12 23 12 15 0z m231 -83 c-3 -14 -15 -27 -26 -30 -26 -7
-26 5 0 21 11 7 20 20 20 29 0 9 3 14 6 10 4 -3 4 -17 0 -30z m-81 -43 c-11
-9 -54 -36 -95 -61 -41 -26 -106 -66 -144 -90 -38 -23 -77 -43 -85 -42 -14 0
-14 1 -1 7 33 15 199 115 265 160 39 27 72 46 75 44 3 -2 -4 -10 -15 -18z
m119 -30 c14 -14 14 -17 0 -40 -18 -27 -25 -29 -42 -12 -21 21 -8 68 19 68 4
0 15 -7 23 -16z m-75 -18 c-2 -2 -61 -36 -131 -75 -70 -40 -141 -83 -158 -97
-16 -14 -28 -20 -25 -12 7 16 129 96 212 137 34 17 64 35 68 41 3 5 13 10 22
10 9 0 14 -2 12 -4z m-707 -208 c-17 -17 -15 -38 5 -38 16 0 16 -1 1 -17 -14
-14 -22 -15 -43 -5 -30 14 -32 28 -5 37 11 3 25 15 31 27 6 11 13 17 17 14 3
-4 0 -12 -6 -18z m-132 -64 c0 -25 -18 -32 -37 -13 -9 9 -9 16 -1 29 15 24 38
14 38 -16z m429 11 c13 -7 -7 -65 -22 -66 -28 -3 -62 4 -68 13 -12 19 3 57 25
61 24 4 52 1 65 -8z m-114 -44 c3 -6 -16 -21 -42 -34 -27 -13 -70 -36 -97 -51
-27 -14 -56 -26 -65 -26 -9 0 13 15 49 33 36 18 83 45 105 59 48 32 43 30 50
19z m-197 -128 c-10 -2 -18 -14 -18 -25 0 -14 5 -18 15 -14 8 3 15 1 15 -4 0
-11 -11 -13 -34 -4 -30 11 -10 55 24 53 11 -1 11 -2 -2 -6z"/>
<path d="M2241 560 c-19 -11 -6 -41 14 -34 16 6 20 29 7 38 -4 2 -14 1 -21 -4z"/>
<path d="M2664 745 c-7 -18 2 -45 15 -45 12 0 24 37 16 50 -9 15 -25 12 -31
-5z m26 -15 c0 -5 -4 -10 -10 -10 -5 0 -10 5 -10 10 0 6 5 10 10 10 6 0 10 -4
10 -10z"/>
<path d="M1886 492 c-3 -6 -1 -14 5 -17 15 -10 25 3 12 16 -7 7 -13 7 -17 1z"/>
<path d="M1760 465 c0 -8 5 -15 10 -15 6 0 10 7 10 15 0 8 -4 15 -10 15 -5 0
-10 -7 -10 -15z"/>
<path d="M2150 451 c0 -11 6 -21 13 -24 20 -7 37 4 37 24 0 14 -7 19 -25 19
-18 0 -25 -5 -25 -19z"/>
<path d="M1776 2633 c-11 -11 -6 -23 9 -23 8 0 15 4 15 9 0 13 -16 22 -24 14z"/>
<path d="M1816 2614 c-8 -21 -8 -24 3 -24 12 0 22 28 12 35 -5 3 -12 -2 -15
-11z"/>
<path d="M1490 2606 c0 -9 7 -16 16 -16 9 0 14 5 12 12 -6 18 -28 21 -28 4z"/>
<path d="M1388 2576 c-31 -15 -44 -26 -39 -35 6 -9 21 -7 65 9 47 18 55 24 45
36 -14 17 -14 17 -71 -10z"/>
<path d="M1855 2581 c-3 -5 12 -15 32 -21 21 -7 42 -16 48 -21 12 -12 35 -12
35 0 0 5 -22 18 -49 30 -57 24 -58 24 -66 12z"/>
<path d="M1310 2540 c-9 -6 -10 -10 -3 -10 6 0 15 5 18 10 8 12 4 12 -15 0z"/>
<path d="M2152 2468 c-18 -18 -14 -35 8 -41 16 -4 20 0 20 18 0 29 -13 38 -28
23z"/>
<path d="M2500 2429 c0 -5 5 -7 10 -4 6 3 10 2 10 -3 0 -11 -58 -70 -88 -90
l-23 -15 29 -18 c17 -9 40 -19 53 -21 16 -2 25 -11 27 -25 2 -13 -2 -23 -8
-23 -13 0 -13 -427 0 -435 4 -3 15 -2 24 1 14 5 16 41 16 309 0 263 -2 306
-16 319 -18 18 -34 21 -34 5z"/>
<path d="M820 2409 c0 -12 5 -19 12 -17 18 6 20 25 3 31 -10 5 -15 0 -15 -14z"/>
<path d="M429 2383 c-1 -10 -1 -24 0 -30 1 -7 -5 -13 -12 -13 -8 0 -17 -11
-19 -25 -5 -24 14 -36 26 -16 8 12 18 101 11 101 -3 0 -6 -8 -6 -17z"/>
<path d="M876 2351 c-7 -10 22 -37 30 -28 9 8 -3 37 -15 37 -5 0 -12 -4 -15
-9z"/>
<path d="M400 2267 c0 -7 5 -18 12 -25 9 -9 8 -12 -4 -12 -13 0 -16 -13 -15
-85 1 -62 4 -82 12 -75 7 6 15 7 18 3 4 -3 7 39 7 94 0 80 -3 102 -15 107 -8
3 -15 0 -15 -7z"/>
<path d="M780 2250 c0 -19 3 -21 12 -12 9 9 9 15 0 24 -9 9 -12 7 -12 -12z"/>
<path d="M2480 2266 c0 -2 7 -6 15 -10 8 -3 15 -1 15 4 0 6 -7 10 -15 10 -8 0
-15 -2 -15 -4z"/>
<path d="M2900 2249 c0 -5 5 -7 10 -4 6 3 10 8 10 11 0 2 -4 4 -10 4 -5 0 -10
-5 -10 -11z"/>
<path d="M810 2170 c-8 -5 -12 -11 -9 -14 2 -3 11 -1 19 4 8 5 12 11 9 14 -2
3 -11 1 -19 -4z"/>
<path d="M1020 2092 c-8 -3 -33 -22 -55 -43 -37 -36 -39 -42 -42 -101 -3 -99
-3 -99 80 -97 62 2 73 5 93 28 15 17 26 23 33 16 6 -6 50 -8 111 -5 56 3 104
2 107 -2 2 -5 -14 -8 -36 -8 -23 0 -41 -4 -41 -10 0 -5 -5 -10 -11 -10 -5 0
-7 5 -4 10 4 7 -13 10 -50 9 -30 -1 -54 -6 -53 -11 2 -5 6 -8 9 -6 3 2 12 -2
20 -9 11 -9 14 -64 13 -303 l0 -292 29 -24 c16 -14 27 -27 25 -29 -2 -3 -14 4
-25 15 -12 10 -23 17 -26 14 -11 -11 6 -42 33 -57 36 -22 43 -21 38 1 -4 15
-1 18 18 14 16 -3 21 -9 17 -20 -4 -10 -2 -13 5 -8 7 4 12 2 12 -3 0 -6 -9
-11 -21 -11 -11 0 -17 -4 -14 -10 11 -18 40 -10 73 19 17 17 32 27 32 24 0 -3
7 0 15 7 13 11 15 58 14 325 -1 173 2 318 6 324 3 7 12 11 18 10 7 -1 24 -1
38 0 23 1 26 5 24 31 -1 17 1 30 6 30 5 0 9 -13 9 -30 0 -28 3 -30 35 -30 22
0 38 6 44 18 10 16 10 16 11 0 0 -15 10 -18 59 -18 38 0 61 4 64 13 3 10 9 10
26 0 23 -14 89 -17 107 -5 6 4 13 13 16 21 3 11 34 14 144 16 160 2 174 -1
174 -26 0 -17 8 -19 90 -18 61 0 90 4 91 12 4 55 4 89 -2 93 -3 2 -4 14 -2 27
4 18 -4 30 -29 49 -18 14 -44 35 -56 46 -23 21 -32 21 -640 20 -340 0 -624 -3
-632 -6z m71 -19 c-5 -10 -28 -36 -50 -58 -35 -33 -54 -75 -35 -75 10 0 111
70 124 85 7 8 22 15 34 14 16 0 17 -2 6 -7 -8 -4 -41 -26 -72 -49 -32 -24 -61
-43 -65 -43 -4 0 -17 -7 -27 -15 -16 -12 -17 -17 -5 -32 13 -17 13 -17 -7 -1
-34 30 -20 74 45 140 62 63 66 66 52 41z m450 -39 c11 -14 11 -18 -4 -29 -9
-7 -17 -23 -17 -36 0 -13 -4 -31 -9 -38 -6 -10 -8 1 -4 30 3 24 11 47 17 51 6
4 4 9 -7 14 -9 3 -14 10 -11 15 8 13 20 11 35 -7z m-217 -54 c9 0 56 -42 56
-51 0 -4 -10 1 -22 11 -79 66 -98 83 -98 91 0 5 13 -5 29 -21 15 -17 31 -30
35 -30z m389 47 c7 -19 -4 -32 -28 -32 -18 0 -21 6 -16 35 2 15 38 12 44 -3z
m-323 -167 c0 -11 -4 -20 -8 -20 -4 0 -8 9 -8 20 0 11 4 20 8 20 4 0 8 -9 8
-20z m-124 -51 c1 -16 -2 -31 -6 -34 -4 -2 -7 14 -7 35 0 45 11 44 13 -1z m1
-69 c-5 -30 -12 -32 -15 -5 -1 14 3 25 8 25 5 0 9 -9 7 -20z m3 -114 c0 -8 7
-17 16 -20 24 -9 10 -19 -15 -11 -21 6 -30 45 -11 45 6 0 10 -6 10 -14z m67
-12 c-3 -3 -12 -4 -19 -1 -8 3 -5 6 6 6 11 1 17 -2 13 -5z m47 -19 c-4 -8 -8
-15 -10 -15 -2 0 -4 7 -4 15 0 8 4 15 10 15 5 0 7 -7 4 -15z m-36 -23 c-10 -2
-18 -11 -18 -20 0 -12 -3 -13 -12 -4 -16 16 8 43 30 34 16 -6 16 -7 0 -10z
m19 -42 c1 -16 -1 -17 -12 -7 -11 10 -8 19 10 27 1 0 1 -9 2 -20z m0 -97 c-3
-10 -5 -2 -5 17 0 19 2 27 5 18 2 -10 2 -26 0 -35z m-99 -68 c0 -28 -19 -33
-38 -10 -14 17 -5 35 19 35 13 0 19 -8 19 -25z m102 5 c0 -5 -5 -10 -11 -10
-5 0 -7 5 -4 10 3 6 8 10 11 10 2 0 4 -4 4 -10z m0 -50 c0 -5 -2 -10 -4 -10
-3 0 -8 5 -11 10 -3 6 -1 10 4 10 6 0 11 -4 11 -10z"/>
<path d="M1240 1371 c0 -6 4 -12 8 -15 5 -3 9 1 9 9 0 8 -4 15 -9 15 -4 0 -8
-4 -8 -9z"/>
<path d="M405 2043 c-15 -15 -15 -17 -1 -25 19 -11 21 -29 4 -25 -19 3 -24
-303 -6 -316 10 -7 10 -10 1 -14 -20 -7 -16 -61 5 -71 26 -14 42 -4 34 21 -4
12 -7 84 -7 159 0 103 -3 134 -12 127 -7 -7 -13 -7 -17 0 -4 5 1 14 10 19 13
7 17 25 19 76 1 69 -3 77 -30 49z"/>
<path d="M1106 1865 c-4 -10 1 -15 14 -15 11 0 20 7 20 15 0 8 -6 15 -14 15
-8 0 -16 -7 -20 -15z"/>
<path d="M1760 1721 c-14 -4 -25 -12 -25 -18 0 -6 -3 -15 -7 -19 -5 -4 -8 2
-8 14 0 20 -5 22 -54 22 l-54 0 -1 -218 c-2 -253 -4 -244 99 -305 83 -50 112
-56 291 -57 121 -1 162 3 185 15 34 17 44 19 44 5 0 -5 -8 -10 -17 -11 -13 0
-14 -2 -4 -6 21 -8 44 26 30 44 -21 24 -70 14 -81 -17 -3 -8 -6 2 -6 22 0 42
21 69 40 50 9 -9 8 -12 -4 -12 -9 0 -20 -5 -24 -11 -4 -7 0 -9 14 -5 28 9 80
-19 94 -49 16 -35 28 -21 28 31 0 24 4 44 10 44 5 0 7 -7 4 -15 -4 -10 0 -15
12 -15 16 0 16 -1 -2 -14 -25 -19 -9 -50 28 -54 27 -3 43 24 27 49 -4 7 -4 20
0 28 4 9 6 79 5 156 -4 162 -4 209 -1 285 l2 55 -183 3 -183 3 3 -73 3 -73
100 -1 c135 -2 132 -2 132 -19 0 -8 -4 -15 -9 -15 -4 0 -8 5 -8 10 0 6 -9 10
-20 10 -19 0 -20 -7 -20 -90 l0 -90 -164 0 c-91 0 -167 4 -170 9 -3 5 -6 76
-7 157 -1 165 -4 184 -25 184 -10 0 -12 -5 -8 -12 6 -10 4 -10 -8 0 -13 10
-17 10 -22 -4 -10 -27 -7 -35 14 -32 10 2 19 -1 20 -7 0 -5 -10 -10 -22 -10
-19 0 -23 5 -23 33 0 17 0 32 0 31 0 -1 -11 -4 -25 -8z m596 -175 c-1 -18 -4
-22 -13 -14 -6 5 -9 16 -6 24 8 23 21 16 19 -10z m-42 -47 c-6 -47 -13 -47
-11 -1 1 22 4 39 8 36 4 -2 5 -18 3 -35z m-7 -101 c-3 -8 -6 -5 -6 6 -1 11 2
17 5 13 3 -3 4 -12 1 -19z m0 -40 c-3 -8 -6 -5 -6 6 -1 11 2 17 5 13 3 -3 4
-12 1 -19z m-591 -34 c7 -8 10 -23 7 -33 -4 -15 1 -17 34 -13 31 3 36 2 26 -9
-16 -16 -97 -16 -117 1 -21 16 -20 49 0 57 13 5 13 8 2 15 -9 6 -5 7 12 3 14
-4 30 -14 36 -21z m104 -114 c0 -10 -6 -20 -12 -23 -21 -7 -38 4 -38 23 0 10
6 20 13 23 20 7 37 -4 37 -23z m536 -47 c-10 -10 -19 5 -10 18 6 11 8 11 12 0
2 -7 1 -15 -2 -18z"/>
<path d="M1673 1304 c-3 -9 0 -20 8 -25 23 -14 29 -11 29 16 0 28 -27 35 -37
9z"/>
<path d="M1785 1210 c3 -5 10 -10 16 -10 5 0 9 5 9 10 0 6 -7 10 -16 10 -8 0
-12 -4 -9 -10z"/>
<path d="M511 1546 c-9 -10 -9 -16 -1 -21 17 -10 37 12 24 25 -8 8 -15 6 -23
-4z"/>
<path d="M2911 1367 c-1 -69 2 -107 7 -98 12 17 16 198 4 205 -5 3 -9 -45 -11
-107z"/>
<path d="M407 1264 c-9 -12 -17 -35 -17 -51 l0 -28 31 32 c28 28 30 33 18 51
-14 19 -14 19 -32 -4z"/>
<path d="M2917 1243 c-4 -3 -7 -11 -7 -17 0 -6 5 -5 12 2 6 6 9 14 7 17 -3 3
-9 2 -12 -2z"/>
<path d="M2910 850 c0 -16 2 -30 4 -30 2 0 6 14 8 30 3 17 1 30 -4 30 -4 0 -8
-13 -8 -30z"/>
<path d="M1970 722 c0 -5 -25 -20 -55 -32 -30 -12 -55 -26 -55 -30 0 -11 15
-8 75 15 63 23 69 29 50 45 -8 7 -15 8 -15 2z"/>
<path d="M1342 708 c3 -7 20 -17 39 -23 19 -6 44 -16 57 -23 12 -7 22 -9 22
-5 0 8 -99 63 -113 63 -5 0 -7 -6 -5 -12z"/>
<path d="M1484 604 c3 -9 6 -18 6 -20 0 -2 6 -4 14 -4 21 0 31 21 15 31 -23
14 -42 11 -35 -7z"/>
<path d="M2368 511 c-69 -44 -72 -47 -64 -59 6 -10 166 62 166 74 0 3 -4 3 -9
0 -5 -3 -11 1 -15 9 -7 20 -13 19 -78 -24z"/>
<path d="M1640 360 c0 -99 3 -180 8 -180 4 0 8 81 9 180 1 101 -3 180 -8 180
-5 0 -9 -79 -9 -180z"/>
<path d="M1215 360 c-8 -13 -1 -24 14 -19 6 3 7 10 2 18 -6 10 -10 10 -16 1z"/>
<path d="M2094 356 c-8 -22 3 -33 18 -18 9 9 9 15 0 24 -9 9 -13 7 -18 -6z"/>
<path d="M1610 161 c0 -6 5 -13 10 -16 6 -3 10 1 10 9 0 9 -4 16 -10 16 -5 0
-10 -4 -10 -9z"/>
</g>
</svg>
